<svg id="Layer_1" data-name="Layer 1" xmlns="http://www.w3.org/2000/svg" viewBox="0 0 104.04 100"><defs><style>.cls-1{fill:#fff;}</style></defs><title>agriculture</title><g id="vegetable"><path class="cls-1" d="M9.74,61.39A1.25,1.25,0,1,0,11,62.64a1.26,1.26,0,0,0-1.25-1.25Z" transform="translate(-4.93 0)"/><circle class="cls-1" cx="4.81" cy="85.65" r="1.24"/><circle class="cls-1" cx="4.81" cy="77.98" r="1.24"/><path class="cls-1" d="M9.74,69.06A1.25,1.25,0,1,0,11,70.31,1.25,1.25,0,0,0,9.74,69.06Z" transform="translate(-4.93 0)"/><path class="cls-1" d="M9.74,92.08a1.25,1.25,0,1,0,.88.36A1.24,1.24,0,0,0,9.74,92.08Z" transform="translate(-4.93 0)"/><path class="cls-1" d="M96.27,61.39a1.25,1.25,0,1,0,0,2.49,1.23,1.23,0,0,0,1.24-1.24,1.25,1.25,0,0,0-1.24-1.25Z" transform="translate(-4.93 0)"/><circle class="cls-1" cx="91.34" cy="85.65" r="1.24"/><circle class="cls-1" cx="91.34" cy="70.31" r="1.24"/><circle class="cls-1" cx="91.34" cy="77.98" r="1.24"/><path class="cls-1" d="M96.27,92.08a1.25,1.25,0,1,0,1.24,1.24,1.22,1.22,0,0,0-.36-.88A1.25,1.25,0,0,0,96.27,92.08Z" transform="translate(-4.93 0)"/><path class="cls-1" d="M6.18,100H100a1.24,1.24,0,0,0,1.24-1.24V57.2A1.23,1.23,0,0,0,100,56H92.84A1.23,1.23,0,0,0,91.6,57.2v4.09h-.26a16.45,16.45,0,0,0,0-4.7.29.29,0,0,0,0-.09,14.46,14.46,0,0,0-.48-1.71,3.85,3.85,0,0,0,.21-3.1l17.16-6.23a1.25,1.25,0,0,0,.76-1.54l-1.47-4.71a1.24,1.24,0,0,0-1.56-.81l-.17.06-3,1.43-2.34-2.34,2-1.84a1.25,1.25,0,0,0,.07-1.76,1.09,1.09,0,0,0-.26-.21L95,29.22a1.23,1.23,0,0,0-1.71.39.56.56,0,0,1,0,.08l-2.87,5.47-2-.94a1.23,1.23,0,0,0-1.65.59s0,.07,0,.1l-3.31,9a3.87,3.87,0,0,0-3.27.15,14.82,14.82,0,0,0-1.73-.49h-.08c-.53-.08-1.06-.13-1.57-.16a15.77,15.77,0,0,0,.42-3.62A13.62,13.62,0,0,0,77,38h0c-.64-4.59-3.72-8.65-8.54-11.21-.29-2.28-4-3.25-6.94-3.67L64,16.43A1.25,1.25,0,0,0,63.51,15L62,13.89V5.1a1.24,1.24,0,0,0-1.24-1.24H57.07L56.7,1.08A1.24,1.24,0,0,0,55.31,0,1,1,0,0,0,55,.09L50.31,1.94a1.23,1.23,0,0,0-.76,1.42l1,4.71H49.09a1.24,1.24,0,0,0-1.24,1.24,1.53,1.53,0,0,0,0,.3l3.31,13.55c-2.76.43-6.32,1.41-6.6,3.62a18.15,18.15,0,0,0-4.87,3.7,1.29,1.29,0,0,0-.36.41,14.21,14.21,0,0,0-3.15,6.22,7.72,7.72,0,0,0-6-2.34c-.66-1.58-1.29-4-.22-4.66a2.21,2.21,0,0,1,.57.17,2.61,2.61,0,0,0,3.21-.59.27.27,0,0,0,.07-.08,2.89,2.89,0,0,0,.42-2.37,2.31,2.31,0,0,0-1.42-1.5l-.06,0c-3-1.19-5-.83-6.12-.33-3.78,1.68-3.27,6.53-2.3,10.47-6.16,2.54-6.74,7.73-6.13,10.24.76,3.16-1.66,6.58-1.68,6.62a1.24,1.24,0,0,0,.22,1.69,32.87,32.87,0,0,0-1.43,6.88h-.76V57.2A1.24,1.24,0,0,0,13.31,56H6.18A1.24,1.24,0,0,0,4.93,57.2V98.76A1.25,1.25,0,0,0,6.18,100ZM94.09,83.13V58.44h4.65V97.51H94.09Zm7.41-39.87,4-1.93.69,2.2L95.91,47.26Zm-14,6.94a3.36,3.36,0,0,1-.54-.26L97.75,38.39,100.37,41Zm6.19-13a1.24,1.24,0,0,0-.65-.75l-.46-.21L94.81,32,99.55,35l-.88.81-.07-.07a1.26,1.26,0,0,0-1.76,0l0,0-4.68,5,1.49-2.61a1.22,1.22,0,0,0,.1-1ZM85.22,46h0l3.31-9,2.26,1.07L85.12,48a3.6,3.6,0,0,1-.36-.77Zm-3.86.19c.08-.08.46-.15,1.13,0l-.18.48v0l0,.08v0s0,0,0,.07,0,0,0,.06v.06a.15.15,0,0,0,0,.07v.05s0,0,0,.08v0h0v0a6.9,6.9,0,0,0,1.94,3.47,5.78,5.78,0,0,0,3.59,1.92h.27l.15,0h0l.41-.14c.14.57.07.88,0,1s-.72.29-1.77,0a8.05,8.05,0,0,1-3.45-2.08c-2.32-2.31-2.46-4.84-2.08-5.22ZM77.88,46l.88.23c-.29,2,.8,4.81,2.92,6.93a10.49,10.49,0,0,0,4.56,2.72,7,7,0,0,0,1.7.24,4.89,4.89,0,0,0,.66,0c.09.3.17.6.23.89a13.55,13.55,0,0,1,0,4.31H61.09L68,49.82v0a7.31,7.31,0,0,1,3.53-3.17,10.09,10.09,0,0,0,2.91,7.27,1.25,1.25,0,0,0,1.73-1.8A7.46,7.46,0,0,1,74.1,46a14.94,14.94,0,0,1,3.78.07ZM57.71,6.35H59.5v6a1.24,1.24,0,0,0-1.2.8l-.59-4.41ZM54.45,3l1.24,9.43L55,9.06a1.25,1.25,0,0,0-1.22-1h-.67l-.89-4.2Zm-3.78,7.58h2.08L55.23,22.2l-.37,1.1a1.24,1.24,0,0,0,2.35.79l.48-1.4v0l2.39-7,.07,0,1.13.82-2.72,7.45a1.45,1.45,0,0,0-.07.35s-.1,1.24-2.25,1.24c-1.91,0-2.21-1.05-2.25-1.31L54,24Zm1.18,15A4.53,4.53,0,0,0,56.25,28c2.66,0,3.94-1.3,4.45-2.48,3.15.4,4.77,1.15,5.2,1.56-.65.62-3.79,1.8-9.38,1.8s-8.74-1.18-9.39-1.8c.41-.39,1.85-1.08,4.72-1.49Zm-11.49,8.1a10.92,10.92,0,0,0,3,2.2A15,15,0,0,0,50,37.6a1.25,1.25,0,1,0,0-2.49h0a12.57,12.57,0,0,1-5.52-1.44A7.43,7.43,0,0,1,42,31.73,16,16,0,0,1,45.64,29c2.23,1.79,7.46,2.33,10.88,2.33S65.17,30.82,67.4,29c3.92,2.11,6.4,5.22,7,8.82-1.82,1.79-3.91,2.69-9.47,2.89a1.25,1.25,0,1,0,0,2.49h0c4.51-.17,7.29-.79,9.51-2.29a12.72,12.72,0,0,1-.47,2.52c-.42,0-.82.1-1.21.17l-.16,0a10,10,0,0,0-6.87,4.88L58.18,61.29H54c-.08-.45-.17-.91-.29-1.36-1.3-5.13-4.86-9.52-8-12.57a1.24,1.24,0,0,0-.44-1.7.24.24,0,0,0-.11-.06,13.58,13.58,0,0,1-5.42-4.23l-.42-.58c-.29-.39-.59-.8-.9-1.2a11.25,11.25,0,0,1,2-5.91Zm-19.18,8a8.25,8.25,0,0,1,5-3.83A1.24,1.24,0,0,0,27,36.3c-2.05-7.45,0-8.34.62-8.63A3.32,3.32,0,0,1,29,27.4a7.88,7.88,0,0,1,2.8.63s0,0,0,.06L31.4,28a2.93,2.93,0,0,0-2.67,0c-1.14.67-2.34,2.17-1.57,5.49a15.14,15.14,0,0,0,1.18,3.22,1.25,1.25,0,0,0,1.32.66c2.92-.53,4.78,1.21,6.52,3.45.37.47.73,1,1.1,1.47l.43.59a14.83,14.83,0,0,0,3.46,3.34,7.85,7.85,0,0,1-1.73-.25c-1.92-.51-3-1.88-4.07-3.2s-2-2.55-3.7-2.74a1.24,1.24,0,0,0-1.33,1.6c.07.22.15.46.24.7a5.29,5.29,0,0,1,.35,3.81,8.59,8.59,0,0,0-.62,3.12,5.14,5.14,0,0,1-2.25-2.89,7.79,7.79,0,0,1-.12-1c-.16-1.58-.35-3.56-1.84-4a1.48,1.48,0,0,0-1.26.16,2.88,2.88,0,0,0-1,2.16c0,.06,0,.11,0,.15a14.92,14.92,0,0,1-2.63,5.11c-.19.22-.38.43-.58.64a8.89,8.89,0,0,0,0-4,5.8,5.8,0,0,1,.56-3.88Zm-1.52,12a17.68,17.68,0,0,0,3.4-3.06,15.07,15.07,0,0,0,2.48-4.22,4.93,4.93,0,0,0,.11.67,7.72,7.72,0,0,0,3.24,4.31s2.2,1.47,3.24,1.2A1.27,1.27,0,0,0,33,51a5.86,5.86,0,0,1,.21-4,6.19,6.19,0,0,0,.4-2.45,9.65,9.65,0,0,0,5.15,3.78,11.12,11.12,0,0,0,4.52.21c3,2.82,6.71,7.08,8,12,.06.25.12.5.17.75H17.81a32.4,32.4,0,0,1,1.85-7.7Zm-5.1,10.19h77V76.92h-77Zm0,15.62h77v2.49h-77Zm0,5h77V97.51h-77ZM7.42,58.44h4.65V97.51H7.42Z" transform="translate(-4.93 0)"/></g></svg>