<svg id="Layer_1" data-name="Layer 1" xmlns="http://www.w3.org/2000/svg" viewBox="0 0 55 55"><defs><style>.cls-1{fill:#00a651;}</style></defs><title>cost</title><path class="cls-1" d="M44,32.08V19.25A11.88,11.88,0,0,0,33.52,7.43l3-6.1a.9.9,0,0,0,0-.9A.9.9,0,0,0,35.75,0H19.25a.91.91,0,0,0-.78.43.93.93,0,0,0,0,.9l3.05,6.1A11.92,11.92,0,0,0,11,19.25v16.5h1.83V19.25A10.09,10.09,0,0,1,22.92,9.17h9.16A10.07,10.07,0,0,1,42.17,19.25V32.08ZM31.52,7.33h-8l-2.75-5.5H34.27Z" transform="translate(0 0)"/><path class="cls-1" d="M19.71,13.69a6.18,6.18,0,0,1,1.6-.65l-.46-1.78a8.22,8.22,0,0,0-2.06.85Z" transform="translate(0 0)"/><path class="cls-1" d="M14.67,22.92H16.5V19.25a6.37,6.37,0,0,1,1.95-4.6l-1.28-1.32a8.2,8.2,0,0,0-2.5,5.92Z" transform="translate(0 0)"/><path class="cls-1" d="M2.61,45.05l15.57,8.49A11.86,11.86,0,0,0,23.89,55H54.08a.92.92,0,0,0,.92-.92V37.58a.92.92,0,0,0-.92-.91h-7L47,36.59a14.12,14.12,0,0,0-3.53-2,14.87,14.87,0,0,0-13.56,1.2H22.92a4.58,4.58,0,0,0-3.7,1.87,4.63,4.63,0,0,0-.68,4.09L7.21,36a4.91,4.91,0,0,0-5.19.5,5,5,0,0,0-2,4v.1A5,5,0,0,0,2.61,45.05ZM47.67,38.5h5.5V53.17h-5.5Zm-45.84,2A3.24,3.24,0,0,1,3.16,38a3.07,3.07,0,0,1,3.23-.29l14.28,7.15a1,1,0,0,0,.41.1H34.83V43.08H22.92a2.75,2.75,0,0,1,0-5.5h7.22a1,1,0,0,0,.51-.15,13,13,0,0,1,12.09-1.18A12.67,12.67,0,0,1,45.83,38V53.17H23.89a10.06,10.06,0,0,1-4.83-1.24L3.49,43.44a3.17,3.17,0,0,1-1.66-2.79Z" transform="translate(0 0)"/><path class="cls-1" d="M49.5,48.58h1.83v1.84H49.5Z" transform="translate(0 0)"/><path class="cls-1" d="M28.42,32.08V30.25h.91a3.67,3.67,0,1,0,0-7.33H25.67a1.84,1.84,0,1,1,0-3.67h6.41V17.42H28.42V15.58H26.58v1.84h-.91a3.67,3.67,0,1,0,0,7.33h3.66a1.84,1.84,0,1,1,0,3.67H22.92v1.83h3.66v1.83Z" transform="translate(0 0)"/></svg>