<svg id="Layer_1" data-name="Layer 1" xmlns="http://www.w3.org/2000/svg" viewBox="0 0 55 52.48"><defs><style>.cls-1{fill:#00a651;}</style></defs><title>eco</title><path class="cls-1" d="M27.32,54.09a14.13,14.13,0,0,1-5.61-1.16l-8.48-3.69a32.21,32.21,0,0,0-9.64-2.51L.81,46.45A.89.89,0,0,1,0,45.56V36.83a.86.86,0,0,1,.18-.54c.21-.28,5.2-6.8,12.82-5.1a32.22,32.22,0,0,1,9.88,4.06,10,10,0,0,0,5.27,1.47h8.48a4.09,4.09,0,0,1,3.47,1.94l7.3-8.42a7.75,7.75,0,0,1,6.16-3h.54a.89.89,0,0,1,.75.41.86.86,0,0,1,.07.85l-6.6,15a11.78,11.78,0,0,1-7.87,6.64l-1.16.29-6.76,2.7A14,14,0,0,1,27.32,54.09ZM1.79,44.75l2,.2A33.93,33.93,0,0,1,14,47.6l8.48,3.69a12.4,12.4,0,0,0,9.44.14l6.81-2.73.12,0,1.22-.3a10,10,0,0,0,6.66-5.62l6-13.69a6,6,0,0,0-3.9,2.32l-8.1,9.32a.41.41,0,0,1,0,.11,4.08,4.08,0,0,1-4.08,4.07H24.8a14.34,14.34,0,0,0-4.51.73L20,44.77l-.28-.86h0a15.94,15.94,0,0,1,5.08-.82H36.63a2.28,2.28,0,0,0,0-4.56H28.15a11.78,11.78,0,0,1-6.21-1.75,30.41,30.41,0,0,0-9.33-3.83c-5.77-1.29-9.92,3.15-10.82,4.2v7.61Z" transform="translate(0 -1.6)"/><path class="cls-1" d="M35.3,27a10.52,10.52,0,0,1-4.63-1.27,1,1,0,0,1-.44-.5c-.07-.2-1.67-4.81.87-8.21,1.85-2.48,5.33-3.59,10.35-3.32a.91.91,0,0,1,.84.86c0,.35.39,8.75-3.89,11.55A5.59,5.59,0,0,1,35.3,27Zm-3.48-2.71c2.35,1.1,4.23,1.21,5.6.32,2.54-1.66,3.09-6.59,3.1-9.15-3.93-.09-6.61.79-8,2.63C30.9,20.27,31.54,23.28,31.82,24.28Z" transform="translate(0 -1.6)"/><path class="cls-1" d="M21.59,15.25a8.39,8.39,0,0,1-5-1.51c-2.72-2-4-5.78-3.71-11.26a.9.9,0,0,1,.84-.85c.39,0,9.57-.51,12.66,4.12,1.43,2.16,1.32,5-.35,8.4a.92.92,0,0,1-.5.45A12.15,12.15,0,0,1,21.59,15.25Zm3.61-1.49h0ZM14.62,3.39c-.07,4.39.94,7.38,3,8.9,2.48,1.82,5.86,1,6.93.73,1.22-2.64,1.32-4.75.3-6.27C23,3.91,17.44,3.36,14.62,3.39Z" transform="translate(0 -1.6)"/><path class="cls-1" d="M28.59,38.2h-.08a.89.89,0,0,1-.81-.94c.05-1.06.14-2.06.26-3,.37-6.35.18-21.12-9.16-25.2a.9.9,0,0,1,.72-1.64c5.5,2.4,9,8.4,10,17.33.09.8.17,1.59.22,2.36,2.46-6.22,6.22-8.41,6.44-8.54a.9.9,0,0,1,.88,1.56c-.09.06-5.86,3.52-7.31,14.2-.11,1.83-.27,3-.28,3.1A.9.9,0,0,1,28.59,38.2Z" transform="translate(0 -1.6)"/></svg>