<svg id="Layer_1" data-name="Layer 1" xmlns="http://www.w3.org/2000/svg" viewBox="0 0 100 100"><defs><style>.cls-1{fill:#fff;}</style></defs><title>lab</title><g id="laboratory"><path class="cls-1" d="M62.5,84.37,41.21,51.46V25a2.08,2.08,0,0,0-2.08-2.08H28.71A2.08,2.08,0,0,0,26.63,25V51.52l-19.42,33A10.27,10.27,0,0,0,16.06,100H54a10.12,10.12,0,0,0,8.5-15.63ZM54,95.83H16.06A6,6,0,0,1,13,95a6.1,6.1,0,0,1-2.17-8.36L30.51,53.14a2.18,2.18,0,0,0,.28-1.06v-25H37v25a2.05,2.05,0,0,0,.34,1.13L59,86.64a5.88,5.88,0,0,1,1,3.23A6,6,0,0,1,54,95.83Z" transform="translate(-5.79 0)"/><path class="cls-1" d="M35.8,60.57l-3.59-2.11L14.52,88.53a2.06,2.06,0,0,0-.29,1.06,2.09,2.09,0,0,0,2.09,2.08H30.79V87.5H20Z" transform="translate(-5.79 0)"/><path class="cls-1" d="M100.76,47.92H68.29A8.33,8.33,0,0,0,60,56.25V89.58A10.44,10.44,0,0,0,70.38,100H89.13A10.42,10.42,0,0,0,99.54,89.58V61.28l4.78-4.78a5,5,0,0,0-3.56-8.58Zm.61,5.64L96,58.94a2.09,2.09,0,0,0-.61,1.48V89.58a6.25,6.25,0,0,1-6.25,6.25H70.38a6.25,6.25,0,0,1-6.25-6.25V56.25a4.17,4.17,0,0,1,4.16-4.17h32.47a.86.86,0,0,1,.61,1.48Z" transform="translate(-5.79 0)"/><path class="cls-1" d="M87,60.42V87.5H80.79v4.17h8.34a2.09,2.09,0,0,0,2.08-2.09V60.42Z" transform="translate(-5.79 0)"/><path class="cls-1" d="M64.13,30.17V2.08A2.09,2.09,0,0,0,62,0H47.46a2.08,2.08,0,0,0-2.08,2.08V30.77A35,35,0,0,0,38.09,34l2.08,3.6A31.45,31.45,0,0,1,48,34.36a2.09,2.09,0,0,0,1.56-2V4.17H60V31.86a2.08,2.08,0,0,0,1.69,2A31.28,31.28,0,0,1,80.18,45.05l3.25-2.6A35.49,35.49,0,0,0,64.13,30.17Z" transform="translate(-5.79 0)"/><path class="cls-1" d="M94.34,29.17a7.29,7.29,0,1,0,7.29,7.29A7.29,7.29,0,0,0,94.34,29.17Zm0,10.41a3.13,3.13,0,1,1,3.12-3.12A3.13,3.13,0,0,1,94.34,39.58Z" transform="translate(-5.79 0)"/><path class="cls-1" d="M87,14.58a6.25,6.25,0,1,0,6.25,6.25A6.25,6.25,0,0,0,87,14.58Zm0,8.34a2.09,2.09,0,1,1,2.09-2.09A2.09,2.09,0,0,1,87,22.92Z" transform="translate(-5.79 0)"/><path class="cls-1" d="M13.09,16.67A7.29,7.29,0,1,0,20.38,24,7.29,7.29,0,0,0,13.09,16.67Zm0,10.41A3.13,3.13,0,1,1,16.21,24,3.13,3.13,0,0,1,13.09,27.08Z" transform="translate(-5.79 0)"/><path class="cls-1" d="M22.46,2.08a6.25,6.25,0,1,0,6.25,6.25A6.25,6.25,0,0,0,22.46,2.08Zm0,8.34a2.09,2.09,0,1,1,2.08-2.09A2.09,2.09,0,0,1,22.46,10.42Z" transform="translate(-5.79 0)"/><rect class="cls-1" x="62.5" y="60.42" width="6.25" height="4.17"/><rect class="cls-1" x="62.5" y="68.75" width="4.17" height="4.17"/><rect class="cls-1" x="62.5" y="77.08" width="6.25" height="4.17"/><rect class="cls-1" x="62.5" y="85.42" width="4.17" height="4.17"/><rect class="cls-1" x="4.17" y="37.5" width="4.17" height="4.17"/><rect class="cls-1" x="10.42" y="47.92" width="4.17" height="4.17"/><rect class="cls-1" x="45.83" y="56.25" width="4.17" height="4.17"/><rect class="cls-1" x="41.67" y="47.92" width="4.17" height="4.17"/><rect class="cls-1" x="39.58" y="39.58" width="4.17" height="4.17"/><rect class="cls-1" x="41.67" y="85.42" width="4.17" height="4.17"/><rect class="cls-1" x="35.42" y="77.08" width="4.17" height="4.17"/></g></svg>