<svg id="Layer_1" data-name="Layer 1" xmlns="http://www.w3.org/2000/svg" xmlns:xlink="http://www.w3.org/1999/xlink" viewBox="0 0 1084.77 220.52"><defs><style>.cls-1,.cls-12{fill:none;}.cls-2,.cls-4{fill:#2e3192;}.cls-2,.cls-6{fill-rule:evenodd;}.cls-3{clip-path:url(#clip-path);}.cls-5{fill:#fff;}.cls-6{fill:#00a651;}.cls-7{fill:#f15b22;}.cls-8{fill:#005da4;}.cls-9{fill:#e11b22;}.cls-10{clip-path:url(#clip-path-2);}.cls-11{clip-path:url(#clip-path-3);}.cls-12{stroke:#fff;stroke-miterlimit:3.86;stroke-width:3.26px;}.cls-13{font-size:46.66px;fill:#06a64f;font-family:RobotoCondensed-Regular, Roboto Condensed;}</style><clipPath id="clip-path" transform="translate(0 0)"><rect class="cls-1" width="1084.77" height="220.52"/></clipPath><clipPath id="clip-path-2" transform="translate(0 0)"><path class="cls-1" d="M51.49,66.86c-1.26,2.3-21.89,22.72-40.17,35.81l-6.75,4.45C15.79,138.68,46.31,162,82.15,162a82.39,82.39,0,0,0,68.66-36.49c-6.3-6.48-39.71-41.34-45.35-58.65l-1.91.47L84.1,85.88s7.14,14.84,9,16-22.82,0-22.82,0L55.69,66a5,5,0,0,0-1.93-.44,2.42,2.42,0,0,0-2.27,1.31"/></clipPath><clipPath id="clip-path-3" transform="translate(0 0)"><path class="cls-1" d="M82.15,162a82.39,82.39,0,0,0,68.66-36.49c-1.88-1.94-6.2-6.43-11.48-12.23C88.07,120.12,41.87,117.46,5,108.41,16.63,139.31,46.8,162,82.15,162"/></clipPath></defs><title>main-logo</title><polygon class="cls-2" points="193.37 151.38 193.37 112.82 206.03 112.82 213.74 138.2 221.34 112.82 234.06 112.82 234.06 151.38 225.02 151.38 225.31 122.37 216.96 151.38 210.46 151.38 202.12 122.37 202.46 151.38 193.37 151.38"/><g class="cls-3"><path class="cls-2" d="M240.14,112.82H250v23.31q0,7.31,5.06,7.31a4.47,4.47,0,0,0,3.66-1.5c.82-1,1.24-2.94,1.24-5.81V112.82h9.84v23.31c0,5.25-1.29,9.19-3.86,11.79q-4.08,4.2-10.88,4.21A15.09,15.09,0,0,1,244,148a11.58,11.58,0,0,1-3-4.72,24.34,24.34,0,0,1-.83-7.13Z" transform="translate(0 0)"/><polygon class="cls-2" points="275.88 151.38 275.88 112.82 285.72 112.82 285.72 130.2 296.71 112.82 307.07 112.82 294.3 132.04 307.88 151.38 296.37 151.38 285.72 134.69 285.72 151.38 275.88 151.38"/><polygon class="cls-2" points="316.31 151.38 316.31 121.51 308.66 121.51 308.66 112.82 333.75 112.82 333.75 121.51 326.15 121.51 326.15 151.38 316.31 151.38"/><rect class="cls-4" x="337.47" y="112.82" width="9.84" height="38.56"/><polygon class="cls-2" points="354.42 151.38 354.42 112.82 362.88 112.82 377.96 137.05 377.56 112.82 386.99 112.82 386.99 151.38 378.42 151.38 363.51 127.9 363.86 151.38 354.42 151.38"/><path class="cls-2" d="M405.34,138h8.12l-4-13.18Zm10.71,7.82H402.7l-2.08,5.59H390l15.48-38.56h7.76l15.31,38.56H418Z" transform="translate(0 0)"/><polygon class="cls-2" points="434.85 151.38 434.85 121.51 427.2 121.51 427.2 112.82 452.29 112.82 452.29 121.51 444.69 121.51 444.69 151.38 434.85 151.38"/><polygon class="cls-2" points="456.01 151.38 456.01 112.82 465.85 112.82 465.85 127.26 478.46 127.26 478.46 112.82 488.3 112.82 488.3 151.38 478.46 151.38 478.46 135.95 465.85 135.95 465.85 151.38 456.01 151.38"/><polygon class="cls-2" points="509.35 151.38 509.35 112.82 519.19 112.82 519.19 130.2 530.18 112.82 540.54 112.82 527.76 132.04 541.34 151.38 529.83 151.38 519.19 134.69 519.19 151.38 509.35 151.38"/><path class="cls-2" d="M553.63,132.16h3.51q6.45,0,6.45-5.47a4.75,4.75,0,0,0-2.42-4.37,7.72,7.72,0,0,0-4-.81h-3.57Zm-9.43,19.22V112.82h12.2a35,35,0,0,1,7.36.58,10.65,10.65,0,0,1,4.49,2.18A12.9,12.9,0,0,1,573,126.11a12.1,12.1,0,0,1-4.2,9.73,11.72,11.72,0,0,1-5.41,2.42l10.47,13.12H562.61l-9-12.49v12.49Z" transform="translate(0 0)"/><rect class="cls-4" x="578.54" y="112.82" width="9.84" height="38.56"/><path class="cls-2" d="M620.4,124h-9.78q-.52-3.74-3.51-3.74a3.48,3.48,0,0,0-2.42.89,2.84,2.84,0,0,0-1,2.16,2.92,2.92,0,0,0,.95,2.25c.64.57,3,1.78,7.05,3.62a18.84,18.84,0,0,1,6.94,4.78,9.7,9.7,0,0,1,2.1,6.33,11,11,0,0,1-3.6,8.69q-3.6,3.16-9.87,3.16a16,16,0,0,1-9.15-2.47,10.86,10.86,0,0,1-4.78-7.94c-.07-.69-.11-1.73-.11-3.11h9.9a6.22,6.22,0,0,0,1.06,3.83,3.45,3.45,0,0,0,2.91,1.41,3.73,3.73,0,0,0,2.7-1.07,3.51,3.51,0,0,0,1.1-2.62,3.12,3.12,0,0,0-1.13-2.5c-.74-.63-3.23-1.81-7.45-3.54q-8.46-3.45-8.46-10.7a10.31,10.31,0,0,1,3.92-8.12,14.29,14.29,0,0,1,9.6-3.33q6.74,0,10.42,4.43A12.69,12.69,0,0,1,620.4,124" transform="translate(0 0)"/><polygon class="cls-2" points="625.54 151.38 625.54 112.82 635.38 112.82 635.38 127.26 647.98 127.26 647.98 112.82 657.82 112.82 657.82 151.38 647.98 151.38 647.98 135.95 635.38 135.95 635.38 151.38 625.54 151.38"/><rect class="cls-4" x="665.02" y="112.82" width="9.84" height="38.56"/><path class="cls-2" d="M723.73,136.93H734a19,19,0,0,1-7,11,20.63,20.63,0,0,1-26.9-1.66,19.37,19.37,0,0,1-5.9-14.28,19.05,19.05,0,0,1,5.84-14.15,19.65,19.65,0,0,1,14.36-5.76,19.27,19.27,0,0,1,15.65,7.2,17.53,17.53,0,0,1,4,8.17h-10.3a10.35,10.35,0,0,0-3.68-4.92,9.94,9.94,0,0,0-13,1.41,11.39,11.39,0,0,0-3,8,11.8,11.8,0,0,0,3,8.2,9.57,9.57,0,0,0,7.37,3.31q6.09,0,9.32-6.51" transform="translate(0 0)"/><path class="cls-2" d="M757.21,120.71a9.89,9.89,0,0,0-7.48,3.22,11.12,11.12,0,0,0-3.05,7.94,11.75,11.75,0,0,0,3.05,8.26,10,10,0,0,0,7.66,3.31,9.59,9.59,0,0,0,7.36-3.28,11.43,11.43,0,0,0,3-8,11.55,11.55,0,0,0-3-8.15,9.78,9.78,0,0,0-7.48-3.3m-.05-8.69a19.91,19.91,0,0,1,14.5,5.81,20.12,20.12,0,0,1,0,28.48,20.33,20.33,0,0,1-34.85-14.5,18.89,18.89,0,0,1,5.9-14A19.85,19.85,0,0,1,757.16,112" transform="translate(0 0)"/><path class="cls-5" d="M149.43,127.47a78,78,0,0,0,13.24-30.31L156.05,76,118.4,20.85,96,16.73,53.15,22.6,11.9,75.73,4.57,104.35l-.15,2.9,1.35,1.18L92,113.75Z" transform="translate(0 0)"/><polygon class="cls-2" points="782.89 151.38 782.89 112.82 795.55 112.82 803.26 138.2 810.86 112.82 823.58 112.82 823.58 151.38 814.54 151.38 814.83 122.37 806.49 151.38 799.98 151.38 791.64 122.37 791.98 151.38 782.89 151.38"/><path class="cls-2" d="M839.5,130.6h4c2.26,0,3.82-.36,4.66-1.09a4.27,4.27,0,0,0,1.5-3.45,4,4,0,0,0-1.79-3.63,8.93,8.93,0,0,0-4.71-.92H839.5Zm-9.44,20.78V112.82h12.61q8.34,0,11.85,2.88a12.55,12.55,0,0,1,4.55,10.24A13.06,13.06,0,0,1,855,136q-3.57,3.33-11.22,3.33H839.5v12.09Z" transform="translate(0 0)"/><path class="cls-2" d="M873.53,138h8.11l-4-13.18Zm10.7,7.82H870.88l-2.07,5.59H858.22l15.48-38.56h7.77l15.31,38.56H886.13Z" transform="translate(0 0)"/><polygon class="cls-2" points="899.93 151.38 899.93 112.82 908.39 112.82 923.47 137.05 923.06 112.82 932.5 112.82 932.5 151.38 923.93 151.38 909.02 127.9 909.37 151.38 899.93 151.38"/><polygon class="cls-2" points="946.65 151.38 946.65 137.34 935.14 112.82 945.84 112.82 951.6 128.3 957.35 112.82 967.94 112.82 956.49 137.34 956.49 151.38 946.65 151.38"/><polygon class="cls-2" points="985.03 151.38 985.03 112.82 994.87 112.82 994.87 142.69 1006.27 142.69 1006.27 151.38 985.03 151.38"/><polygon class="cls-2" points="1013.43 151.38 1013.43 121.51 1005.77 121.51 1005.77 112.82 1030.87 112.82 1030.87 121.51 1023.27 121.51 1023.27 151.38 1013.43 151.38"/><path class="cls-2" d="M1044.43,142.69h4.26a9.56,9.56,0,0,0,5.87-1.61q3.57-2.72,3.56-8.81,0-5.86-3.1-8.69a8.92,8.92,0,0,0-6.28-2.07h-4.31Zm-9.84,8.69V112.82h13a28.86,28.86,0,0,1,9,1.15,15.36,15.36,0,0,1,6.16,4q5.24,5.41,5.24,13.93,0,9.84-6.22,15.25a17.59,17.59,0,0,1-12,4.2Z" transform="translate(0 0)"/><rect class="cls-4" x="1072.67" y="142.51" width="8.98" height="8.86"/><path class="cls-6" d="M223.48,44.9h8.43V33.39h-8.43Zm28.77-17.68v6.17h-7.19v45H231.91V51.68h-8.43q.21,10.68-2.36,16.23-3.5,7.61-13.15,8-8,.3-12.64-3.86T190.71,59.9a16,16,0,0,1,3.9-11A13.17,13.17,0,0,1,205,44.49a16.15,16.15,0,0,1,3.59.41l2.26,6.78a6.81,6.81,0,0,0-2.67-.62,5.08,5.08,0,0,0-4.62,3.08,12,12,0,0,0-1.34,5.76,12.49,12.49,0,0,0,1.34,5.85c1.1,2.2,2.64,3.29,4.62,3.29q3.71,0,3.7-6.27V33.39H190.09V27.22Z" transform="translate(0 0)"/><path class="cls-6" d="M231.28,81.37v6.78a7.23,7.23,0,0,1,6.37-3.39q3.49,0,3.5,2.67,0,3.5-4.52,3.5a14.21,14.21,0,0,1-7.3-2.21,9.46,9.46,0,0,1-4.62-5.5L219,89.69q9.36,6.68,17.57,6.68,18,0,18.09-9.35.09-8.62-13-8.63-7.91,0-10.38,3" transform="translate(0 0)"/><path class="cls-6" d="M274.43,27.22v6.17h-7.19v45H254.09v-45H250.6V27.22h3.9a5.9,5.9,0,0,1-2.26-4q-.83-8.64,6.37-12.95,5.44-3.28,14.9-3.7A57.26,57.26,0,0,1,294.26,10q12.94,4.42,20.24,12.33l-13.56,4.83q-7.6-12.74-21.68-12.74-13.14,0-14.38,7.5c-.34,1.92.44,3.7,2.36,5.34Z" transform="translate(0 0)"/><path class="cls-6" d="M272.53,44.49V38.73h21A51.51,51.51,0,0,1,306,40V33.39H272.53V27.22h54.65v6.17H320v45H306V47.67a17.32,17.32,0,0,0-7.71-2.05A9.12,9.12,0,0,0,290,50.14a16.86,16.86,0,0,0-2.36,9.65q.11,14.59,10.58,14.49A18.5,18.5,0,0,0,301.7,74l-4.31,8.12q-10.27-.21-16.65-5.55-6.78-5.66-7.19-15.72-.41-10.38,5.65-16.33Z" transform="translate(0 0)"/><path class="cls-6" d="M318.23,42.12a26.59,26.59,0,0,1,15.1-5q8.22,0,13.05,5.19t4.73,13.4a19.75,19.75,0,0,1-5.76,14.23,19.11,19.11,0,0,1-14.18,5.71,20.67,20.67,0,0,1-3.49-.31L325,66.47a6.82,6.82,0,0,0,4.77,2.06q3.83,0,5.7-4.61a20.3,20.3,0,0,0,1.35-7.77q-.1-10.63-7.86-10.64c-3.3,0-6.89,1.48-10.74,4.42Zm0-14.9H358.5v6.17H318.23Z" transform="translate(0 0)"/><path class="cls-6" d="M377.55,50l5.54-4.62q-9.34.21-9.76,12a13.18,13.18,0,0,0,1,5.65c1,2.33,2.29,3.5,4,3.5q4.51,0,4.21-8.84-.21-8-3.49-8a4.46,4.46,0,0,0-1.54.3m6.16-5.44q9.35,3.69,9.25,12.94Q392.75,75,376.52,75.41q-8.11.21-13.15-4.83t-5-13.15q0-10.07,7.3-15.31,6.27-4.51,16.74-4.52a47.72,47.72,0,0,1,15.31,2.67V33.39h-41.3V27.22h61.75v6.17h-7.3v45H397.68V48q-4.83-2.77-14-3.39" transform="translate(0 0)"/><polygon class="cls-6" points="420.18 78.39 420.18 33.39 416.48 33.39 416.48 27.22 440.63 27.22 440.63 33.39 433.33 33.39 433.33 78.39 420.18 78.39"/><path class="cls-6" d="M458.54,26.09q11.2,0,16.24,9.25A17.88,17.88,0,0,1,477.14,44a17.11,17.11,0,0,1-2.57,8.84q-5.64,9.45-20.65,10,10.79,7.31,16.54,7.3,6.48,0,11.51-7.3V33.39h-6.58V27.22h27v6.17h-7.81v45H482V73.15a23.59,23.59,0,0,1-14.76,4.62,34.42,34.42,0,0,1-15.27-3.59A26.46,26.46,0,0,1,440.15,64V52.6a26.58,26.58,0,0,0,11.2,3,12,12,0,0,0,9.4-3.95,14.3,14.3,0,0,0,3.55-9.92,13.26,13.26,0,0,0-1.13-5.55q-1.44-3.07-4.11-3.39a4.12,4.12,0,0,0-4.06,1.7,7.62,7.62,0,0,0-1.49,4.67q0,5.45,4.62,5.45a11,11,0,0,0,1.34-.1L454.13,49a10.07,10.07,0,0,1-2.06.2,11.47,11.47,0,0,1-7.65-2.93A9,9,0,0,1,441,39.14a10.57,10.57,0,0,1,1.84-5.75h-4V27.22h5.85v3.09q4.21-4.21,13.87-4.22" transform="translate(0 0)"/><path class="cls-6" d="M553.45,45.62a10,10,0,0,0-5-1.65q-4,0-6,4.44A19.8,19.8,0,0,0,541,56.35a16.83,16.83,0,0,0,1.72,7.84c1.42,2.76,3.47,4.13,6.17,4.13A8.88,8.88,0,0,0,554,66.68V33.39H526.33V27.22h74.59v6.17h-33.6v6.47a19.13,19.13,0,0,1,10.38-3q8.22,0,13.26,5.26t4.93,13.49a19.84,19.84,0,0,1-5.76,14.27A19.11,19.11,0,0,1,576,75.62a20.67,20.67,0,0,1-3.49-.31l-2.67-8.84a6.82,6.82,0,0,0,4.77,2.06c2.55,0,4.46-1.54,5.7-4.63a20.48,20.48,0,0,0,1.35-7.81q-.11-10.89-8.14-10.89A12.15,12.15,0,0,0,567.32,47V78.39H554V74.28q-1.54,1.34-7,1.34-9.12,0-14.64-4.63-6-5-6-14T531,42.64q4.93-5.76,13.77-5.76a25.41,25.41,0,0,1,6.27.82Z" transform="translate(0 0)"/><path class="cls-6" d="M599.84,95a36.78,36.78,0,0,1-7.29,1.33q-18,0-18.09-9.35-.11-8.62,13.06-8.63,8,0,10.26,2.16V86.1a12.58,12.58,0,0,0-6.37-1.34c-2.32,0-3.49.89-3.49,2.67q0,3.5,4.32,3.5a13.9,13.9,0,0,0,9-3.39Z" transform="translate(0 0)"/><path class="cls-6" d="M623.06,27.22v6.17h-7.19v45H602.72v-45h-3.5V27.22h3.91a5.86,5.86,0,0,1-2.26-4q-.82-8.64,6.37-12.95,5.44-3.28,14.9-3.7A57.33,57.33,0,0,1,642.89,10q12.95,4.42,20.24,12.33l-13.56,4.83Q642,14.38,627.89,14.38q-13.15,0-14.39,7.5-.51,2.88,2.37,5.34Z" transform="translate(0 0)"/><path class="cls-6" d="M661,27.22v6.17H643.55l17.26,24.86-.1,8.94Q655.57,74,645.6,74a22.74,22.74,0,0,1-13.25-3.9q-6.48-4.42-6.47-11.61V33.39h-4.73V27.22ZM655,62.06,638.82,37.93v19.4A8.78,8.78,0,0,0,641,63.65,8.18,8.18,0,0,0,647.24,66q6.16,0,7.71-3.9" transform="translate(0 0)"/><polygon class="cls-6" points="655.71 78.39 655.71 33.39 652.01 33.39 652.01 27.22 676.16 27.22 676.16 33.39 668.86 33.39 668.86 78.39 655.71 78.39"/><path class="cls-6" d="M727.26,45.62a10.07,10.07,0,0,0-5-1.65c-2.67,0-4.65,1.48-6,4.44a19.8,19.8,0,0,0-1.44,7.94,16.83,16.83,0,0,0,1.72,7.84C718,67,720,68.32,722.71,68.32a8.85,8.85,0,0,0,5.06-1.64V33.39H700.13V27.22h74.59v6.17H741.13v6.47a19.12,19.12,0,0,1,10.37-3q8.22,0,13.26,5.26t4.93,13.49a19.88,19.88,0,0,1-5.75,14.27,19.14,19.14,0,0,1-14.18,5.72,20.69,20.69,0,0,1-3.5-.31l-2.67-8.84a6.82,6.82,0,0,0,4.77,2.06q3.84,0,5.7-4.63a20.48,20.48,0,0,0,1.35-7.81q-.1-10.89-8.13-10.89A12.1,12.1,0,0,0,741.13,47V78.39H727.77V74.28q-1.53,1.34-7,1.34-9.1,0-14.64-4.63-6-5-6-14t4.63-14.38q4.92-5.76,13.76-5.76a25.35,25.35,0,0,1,6.27.82Z" transform="translate(0 0)"/><path class="cls-6" d="M821.93,51.68H806.32q.3,10.68-2.27,16.23-3.48,7.61-13.15,8-8,.3-12.63-3.86T773.64,59.9a16,16,0,0,1,3.91-11,13.17,13.17,0,0,1,10.37-4.41,16.17,16.17,0,0,1,3.6.41l2.26,6.78a6.85,6.85,0,0,0-2.67-.62,5.06,5.06,0,0,0-4.62,3.08,12,12,0,0,0-1.34,5.76,12.49,12.49,0,0,0,1.34,5.85c1.09,2.2,2.63,3.29,4.62,3.29q3.71,0,3.7-6.27V33.39H773V27.22h49.21v6.17H806.32V44.9h15.61Z" transform="translate(0 0)"/><path class="cls-6" d="M821,58.46V33.39h-4.72V27.22h52.19v6.17h-7.19v45H848.84V71.3A16.31,16.31,0,0,1,838.16,75a17.17,17.17,0,0,1-12.28-4.62A15.72,15.72,0,0,1,821,58.46m27.84,3.39V33.39H834V57.33q0,8.52,7.6,8.53,5.76,0,7.29-4" transform="translate(0 0)"/><path class="cls-6" d="M887.59,50l5.55-4.62q-9.36.21-9.76,12a13.17,13.17,0,0,0,1,5.65q1.44,3.49,4,3.5,4.53,0,4.21-8.84c-.13-5.34-1.3-8-3.49-8a4.51,4.51,0,0,0-1.54.3m6.16-5.44q9.36,3.69,9.25,12.94Q902.79,75,886.56,75.41q-8.12.21-13.15-4.83t-5-13.15q0-10.07,7.29-15.31,6.27-4.51,16.75-4.52a47.81,47.81,0,0,1,15.31,2.67V33.39h-41.3V27.22h61.74v6.17h-7.29v45H907.73V48q-4.83-2.77-14-3.39" transform="translate(0 0)"/><path class="cls-6" d="M919.65,16q-3.49.32-3.5,2.86a7.5,7.5,0,0,0,2.16,4.58,37.9,37.9,0,0,0,4,3.76l-14.49.11q-4.11-4-4.11-8.63a8.55,8.55,0,0,1,4.73-7.91,18.87,18.87,0,0,1,9.45-2.16,24.26,24.26,0,0,1,13.56,4.11q5,3.28,12.12,11.2l-8.42,3.28h16.75v6.17h-7.2v45H931.56v-45h-4.93V27.22H931a13.68,13.68,0,0,0-3.91-7.8q-3.49-3.81-7.39-3.4" transform="translate(0 0)"/><path class="cls-6" d="M999.5,27.22v6.17h-7.19v45H979.16v-45h-3.5V27.22h3.91a5.86,5.86,0,0,1-2.26-4q-.82-8.64,6.37-12.95,5.45-3.28,14.9-3.7A57.3,57.3,0,0,1,1019.33,10q12.95,4.42,20.24,12.33L1026,27.12q-7.6-12.74-21.68-12.74-13.16,0-14.38,7.5-.53,2.88,2.36,5.34Z" transform="translate(0 0)"/><path class="cls-6" d="M1026.15,54.86a12.35,12.35,0,0,0-1.43-6q-1.76-3.28-4.83-3.28c-2.67,0-4.63,1.81-5.86,5.44a26.85,26.85,0,0,0-1.33,8.73q0,15.1,10.68,15.11,4.83,0,11.61-3.19l-2.67,8.94a39.63,39.63,0,0,1-10,1.34q-10,0-16.64-5.45a19.51,19.51,0,0,1-7.09-15.72q0-9.55,4.31-15.82,5-7.09,14.18-7.09a18.11,18.11,0,0,1,9.51,2.62,14,14,0,0,1,6.11,7.24,8.69,8.69,0,0,1,3.6-5.85,11.23,11.23,0,0,1,6.78-2.16,7.91,7.91,0,0,1,5.85,2.05V33.39H997.59V27.22H1070v6.17h-7.2v45H1049v-28a6.76,6.76,0,0,0-4.83-1.75c-3.35,0-5,2.2-5,6.58V65.44h-12.95Z" transform="translate(0 0)"/><path class="cls-6" d="M1073.49,66.06a5.4,5.4,0,0,1,3.8-1.54,5.43,5.43,0,0,1,5.45,5.45,5.43,5.43,0,0,1-1.59,3.9,5.35,5.35,0,0,1-7.71,0,5.43,5.43,0,0,1-1.59-3.9,5.15,5.15,0,0,1,1.64-3.91" transform="translate(0 0)"/><rect class="cls-7" x="190.09" y="99.57" width="894.68" height="3.99"/><path class="cls-8" d="M164.31,81a80,80,0,0,1-1.75,16.71c-21.8-13.85-47.39-72.33-47.39-72.33h-15c-3.63,19.89-22.81,42.8-22.81,42.8-4.76-2.74-10.12-38.57-10.12-38.57H54.8C53.05,52.91,13.18,99,4.42,107.25A79.67,79.67,0,0,1,0,81C0,36.26,36.78,0,82.15,0s82.16,36.26,82.16,81" transform="translate(0 0)"/><path class="cls-9" d="M82.15,162c-35.84,0-66.36-23.28-77.58-54.84l6.75-4.45C29.61,89.58,50.23,69.16,51.49,66.86s4.2-.87,4.2-.87l14.55,35.88s24.64,1.16,22.82,0-9-16-9-16l19.45-18.59,1.91-.47c5.64,17.31,39.05,52.17,45.35,58.65A82.39,82.39,0,0,1,82.15,162" transform="translate(0 0)"/></g><g class="cls-10"><path class="cls-6" d="M1.79,107.59c47.57,12.37,111.53,13.89,182.07-2.52,0,0-28.75,67.58-35.57,68.47s-130.13-10.08-132.5-16.6S1.57,127.59,1,123.74s.82-16.15.82-16.15" transform="translate(0 0)"/></g><g class="cls-11"><path class="cls-12" d="M.57,110.69c48.64,10,100.94,10.18,154.27,1.33" transform="translate(0 0)"/><path class="cls-12" d="M.57,146.19c48.64,10,100.94,10.18,154.27,1.32" transform="translate(0 0)"/><path class="cls-12" d="M.57,119.57c48.64,10,100.94,10.17,154.27,1.32" transform="translate(0 0)"/><path class="cls-12" d="M.57,128.44c48.64,10,100.94,10.18,154.27,1.33" transform="translate(0 0)"/><path class="cls-12" d="M.57,137.32c48.64,10,100.94,10.17,154.27,1.32" transform="translate(0 0)"/></g><g class="cls-3"><path class="cls-5" d="M137.86,111.62c-42.64,7.33-83.48,6.27-132.8-3.19l1,2.61c27.35,5.17,52.12,7.77,76.07,7.77a328.36,328.36,0,0,0,57.59-5.11Z" transform="translate(0 0)"/><text class="cls-13" transform="translate(193.37 207.88)">An Associate Company of Muktinath Bikas Bank</text></g></svg>