<svg id="Layer_1" data-name="Layer 1" xmlns="http://www.w3.org/2000/svg" viewBox="0 0 21.33 20"><defs><style>.cls-1{fill:#010101;}</style></defs><title>menu-cart</title><g id="add-to-cart"><path class="cls-1" d="M12.43,9.86Zm0,0Zm0,0Zm0,0Zm0,0Zm0,0Zm0,0Zm0,0Zm0,0Zm0,0Z" transform="translate(0)"/><path class="cls-1" d="M12.43,9.86Z" transform="translate(0)"/></g><g id="add-to-cart-2" data-name="add-to-cart"><path class="cls-1" d="M5.71,15H17.44l1.79-6.89A4.38,4.38,0,1,0,13,6.25H5.79L5,2.5H0V3.75H4l2.22,10H5.71a1.88,1.88,0,1,0,0,3.75h.73a1.9,1.9,0,0,0-.11.63A1.88,1.88,0,1,0,10,17.5h2.71a1.9,1.9,0,0,0-.11.63,1.88,1.88,0,1,0,3.65-.63h1.35V16.25H5.71a.63.63,0,1,1,0-1.25Zm1.75-1.25-.56-2.5H9.51l.21,2.5Zm5.69-2.5-.2,2.5H11l-.21-2.5ZM10.66,10l-.21-2.5h3L13.26,10Zm3.54,3.75.21-2.5h2.71l-.65,2.5ZM17.45,10H14.51l.16-1.9A4.37,4.37,0,0,0,17,8.75a4.58,4.58,0,0,0,.83-.08ZM17,1.25a3.13,3.13,0,1,1-3.13,3.13A3.13,3.13,0,0,1,17,1.25ZM9.2,7.5,9.4,10H6.63L6.07,7.5ZM8.83,18.13a.63.63,0,1,1-.62-.63A.62.62,0,0,1,8.83,18.13Zm6.25,0a.63.63,0,1,1-.62-.63A.62.62,0,0,1,15.08,18.13Z" transform="translate(0)"/><path class="cls-1" d="M16.33,6.25h1.25V5h1.25V3.75H17.58V2.5H16.33V3.75H15.08V5h1.25Z" transform="translate(0)"/></g></svg>