<svg id="Layer_1" data-name="Layer 1" xmlns="http://www.w3.org/2000/svg" viewBox="0 0 100 100"><defs><style>.cls-1{fill:#fff;}</style></defs><title>research</title><g id="qualitative-research"><path class="cls-1" d="M47.26,38.71A17.74,17.74,0,1,0,65,56.45,17.76,17.76,0,0,0,47.26,38.71Zm0,32.26A14.52,14.52,0,1,1,61.77,56.45,14.53,14.53,0,0,1,47.26,71Z" transform="translate(-6.93 0)"/><path class="cls-1" d="M81.13,61.29v7.85l11.78-7.85h2.73a8.08,8.08,0,0,0,8.07-8.06V33.87a8.07,8.07,0,0,0-8.07-8.06H87a9.65,9.65,0,0,0-18.22,0H60.16a7.78,7.78,0,0,0-1.61.16V14.52a8.08,8.08,0,0,0-8.07-8.07H41.85a9.66,9.66,0,0,0-18.22,0H15a8.08,8.08,0,0,0-8.07,8.07V33.87A8.08,8.08,0,0,0,15,41.94H28a24,24,0,0,0-1,27.67l-2.3,2.3L23.06,70.3l-14,14a7.24,7.24,0,0,0-2.15,5.17,7.32,7.32,0,0,0,12.49,5.17l14-14L31.79,79l2.31-2.3A24.15,24.15,0,0,0,71,61.29ZM87.58,29h8.06a4.84,4.84,0,0,1,4.84,4.84V53.23a4.84,4.84,0,0,1-4.84,4.83H91.93l-7.58,5.06V58.06h-13c0-.53.08-1.06.08-1.61s0-1.08-.08-1.61H94V51.61a16.15,16.15,0,0,0-10.17-15A9.65,9.65,0,0,0,87.58,29Zm-5,22.58-1-12.35A12.94,12.94,0,0,1,90.8,51.61ZM78.35,38.73l1,12.88h-3l1-12.87.45,0ZM73.18,51.61H71a24,24,0,0,0-3.2-7.94,12.9,12.9,0,0,1,6.41-4.39Zm4.72-29A6.45,6.45,0,1,1,71.45,29,6.45,6.45,0,0,1,77.9,22.58ZM68.22,29a9.69,9.69,0,0,0,3.71,7.61A16,16,0,0,0,65.81,41a24.28,24.28,0,0,0-10.47-7.27A4.84,4.84,0,0,1,60.16,29ZM42.42,9.68h8.06a4.84,4.84,0,0,1,4.84,4.84V27.46a8,8,0,0,0-3.11,5.31,26.28,26.28,0,0,0-3.34-.43v-.08a16.13,16.13,0,0,0-10.17-15A9.68,9.68,0,0,0,42.42,9.68ZM19.84,32.26A12.92,12.92,0,0,1,29,19.91L28,32.26ZM32.29,19.38l.45,0,.45,0,1,12.88h-3Zm4.18.53a12.92,12.92,0,0,1,9.17,12.35H37.46ZM32.74,3.23a6.45,6.45,0,1,1-6.45,6.45A6.45,6.45,0,0,1,32.74,3.23ZM10.16,33.87V14.52A4.84,4.84,0,0,1,15,9.68h8.06a9.68,9.68,0,0,0,3.72,7.61,16.13,16.13,0,0,0-10.17,15v3.22H35.24a24.4,24.4,0,0,0-4.38,3.23H15A4.84,4.84,0,0,1,10.16,33.87Zm7,58.48a4.09,4.09,0,0,1-7-2.89,4,4,0,0,1,1.2-2.89l11.7-11.71,5.79,5.79Zm12.37-15.6L27,74.19l2-2a23.8,23.8,0,0,0,2.56,2.56Zm17.75.67a21,21,0,1,1,21-21A21,21,0,0,1,47.26,77.42Z" transform="translate(-6.93 0)"/><path class="cls-1" d="M102.09,71h-29a4.84,4.84,0,0,0-4.84,4.84V95.16A4.84,4.84,0,0,0,73.06,100h29a4.84,4.84,0,0,0,4.84-4.84V75.81A4.84,4.84,0,0,0,102.09,71Zm1.62,24.19a1.62,1.62,0,0,1-1.62,1.61h-29a1.61,1.61,0,0,1-1.61-1.61V75.81a1.62,1.62,0,0,1,1.61-1.62h29a1.63,1.63,0,0,1,1.62,1.62Z" transform="translate(-6.93 0)"/><path class="cls-1" d="M97.26,80.65H94v9.67H90.8V83.87H87.58v6.45H84.35V87.1H81.13v3.22H77.9V77.42H74.68V93.55h25.8V90.32H97.26Z" transform="translate(-6.93 0)"/><path class="cls-1" d="M94,32.26h3.23v3.22H94Z" transform="translate(-6.93 0)"/><path class="cls-1" d="M94,38.71h3.23v3.23H94Z" transform="translate(-6.93 0)"/><path class="cls-1" d="M13.38,12.9h3.23v3.23H13.38Z" transform="translate(-6.93 0)"/><path class="cls-1" d="M13.38,19.35h3.23v3.23H13.38Z" transform="translate(-6.93 0)"/></g></svg>