<svg id="Layer_1" data-name="Layer 1" xmlns="http://www.w3.org/2000/svg" viewBox="0 0 22.86 20"><defs><style>.cls-1{fill:#010101;}</style></defs><title>sell</title><g id="store"><path class="cls-1" d="M22.84,6.26l-1.3-5.18A1.43,1.43,0,0,0,20.16,0H2.7A1.44,1.44,0,0,0,1.31,1.08L0,6.26a.88.88,0,0,0,0,.17A3.49,3.49,0,0,0,3.39,10,3.33,3.33,0,0,0,6.07,8.62a3.29,3.29,0,0,0,5.36,0,3.29,3.29,0,0,0,5.36,0A3.32,3.32,0,0,0,19.46,10a3.49,3.49,0,0,0,3.4-3.57A.88.88,0,0,0,22.84,6.26Z" transform="translate(0)"/><path class="cls-1" d="M19.46,11.43a4.67,4.67,0,0,1-2.67-.84,4.8,4.8,0,0,1-5.36,0,4.8,4.8,0,0,1-5.36,0,4.68,4.68,0,0,1-2.68.84,4.62,4.62,0,0,1-2-.45v7.59A1.43,1.43,0,0,0,2.86,20H8.57V14.29h5.72V20H20a1.43,1.43,0,0,0,1.43-1.43V11A4.63,4.63,0,0,1,19.46,11.43Z" transform="translate(0)"/></g></svg>