<svg id="Layer_1" data-name="Layer 1" xmlns="http://www.w3.org/2000/svg" viewBox="0 0 55 55"><defs><style>.cls-1{fill:#00a651;}</style></defs><title>tech</title><path class="cls-1" d="M9.67,42.53a4.45,4.45,0,0,0-2.16.56,25.35,25.35,0,0,1,20-40.94,25.82,25.82,0,0,1,5,.5,1.06,1.06,0,0,0,1.26-.84A1.06,1.06,0,0,0,33,.55,27.07,27.07,0,0,0,27.5,0,27.5,27.5,0,0,0,5.92,44.54a4.51,4.51,0,1,0,3.75-2Zm1.67,6.19a2.35,2.35,0,1,1,.7-1.67A2.36,2.36,0,0,1,11.34,48.72Z" transform="translate(0 0)"/><path class="cls-1" d="M49.08,10.46a4.51,4.51,0,0,0-3.75-7,4.52,4.52,0,0,0,0,9,4.45,4.45,0,0,0,2.16-.56,25.37,25.37,0,0,1-25,40.45,1.06,1.06,0,0,0-1.26.84,1.08,1.08,0,0,0,.84,1.27A28.05,28.05,0,0,0,27.5,55,27.5,27.5,0,0,0,49.08,10.46Zm-5.42-.83a2.37,2.37,0,0,1,1.67-4,2.37,2.37,0,1,1-1.67,4Z" transform="translate(0 0)"/><path class="cls-1" d="M23.07,46a1.07,1.07,0,0,0,1.07,1.07h6.72A1.07,1.07,0,0,0,31.93,46V43.89a16.73,16.73,0,0,0,4-1.67l1.47,1.47a1.11,1.11,0,0,0,.76.32,1.07,1.07,0,0,0,.76-.32l4.75-4.75a1.07,1.07,0,0,0,0-1.52L42.23,36a16.57,16.57,0,0,0,1.67-4H46a1.07,1.07,0,0,0,1.07-1.07V24.13A1.07,1.07,0,0,0,46,23.06H43.9a16.9,16.9,0,0,0-1.67-4l1.46-1.46a1.11,1.11,0,0,0,.32-.76,1.07,1.07,0,0,0-.32-.76L38.94,11.3a1.07,1.07,0,0,0-1.52,0L36,12.76a16.73,16.73,0,0,0-4-1.67V9A1.07,1.07,0,0,0,30.86,8H24.14A1.07,1.07,0,0,0,23.07,9v2.07a16.73,16.73,0,0,0-4,1.67L17.58,11.3a1.07,1.07,0,0,0-1.52,0l-4.75,4.75a1.07,1.07,0,0,0-.32.76,1.11,1.11,0,0,0,.32.76L12.77,19a16.9,16.9,0,0,0-1.67,4H9A1.07,1.07,0,0,0,8,24.13v6.72A1.06,1.06,0,0,0,9,31.92H11.1a16.57,16.57,0,0,0,1.67,4L11.3,37.42a1.07,1.07,0,0,0,0,1.52l4.75,4.75a1.07,1.07,0,0,0,.76.32h0a1.11,1.11,0,0,0,.76-.32L19,42.22a16.73,16.73,0,0,0,4,1.67Zm-3.61-6a1.09,1.09,0,0,0-1.35.15l-1.3,1.3-3.23-3.23,1.3-1.3A1.09,1.09,0,0,0,15,35.53a14.62,14.62,0,0,1-2-4.91,1.07,1.07,0,0,0-1.05-.85H10.1V25.21h1.84A1.07,1.07,0,0,0,13,24.36a14.62,14.62,0,0,1,2-4.91,1.09,1.09,0,0,0-.15-1.35l-1.29-1.29,3.23-3.23,1.29,1.29a1.09,1.09,0,0,0,1.35.15,14.62,14.62,0,0,1,4.91-2,1.07,1.07,0,0,0,.85-1.05V10.1h4.56v1.83A1.07,1.07,0,0,0,30.63,13a14.62,14.62,0,0,1,4.91,2,1.09,1.09,0,0,0,1.35-.15l1.29-1.29,3.23,3.23L40.12,18.1A1.09,1.09,0,0,0,40,19.45a14.62,14.62,0,0,1,2,4.91,1.07,1.07,0,0,0,1.05.85H44.9v4.56H43.06a1.07,1.07,0,0,0-1.05.85,14.62,14.62,0,0,1-2,4.91,1.09,1.09,0,0,0,.15,1.35l1.3,1.3-3.23,3.23-1.3-1.3A1.09,1.09,0,0,0,35.54,40a14.62,14.62,0,0,1-4.91,2,1.08,1.08,0,0,0-.85,1V44.9H25.22V43.05a1.08,1.08,0,0,0-.85-1A14.62,14.62,0,0,1,19.46,40Z" transform="translate(0 0)"/><path class="cls-1" d="M36.38,27.5a8.88,8.88,0,1,0-8.88,8.88A8.9,8.9,0,0,0,36.38,27.5Zm-15.61,0a6.73,6.73,0,1,1,6.73,6.73A6.74,6.74,0,0,1,20.77,27.5Z" transform="translate(0 0)"/><path class="cls-1" d="M37.39,4.06a1.08,1.08,0,1,0-.76-1.83,1.07,1.07,0,0,0-.31.76,1.06,1.06,0,0,0,1.07,1.07Z" transform="translate(0 0)"/><path class="cls-1" d="M17.66,51a1.07,1.07,0,0,0-.76.31,1.06,1.06,0,0,0,0,1.52,1.07,1.07,0,0,0,.76.32,1.08,1.08,0,1,0,0-2.15Z" transform="translate(0 0)"/></svg>