<svg id="Capa_1" data-name="Capa 1" xmlns="http://www.w3.org/2000/svg" viewBox="0 0 55 55"><defs><style>.cls-1{fill:#00a651;}</style></defs><title>thumb</title><path class="cls-1" d="M52.55,37.76a6,6,0,0,1,.83,3.06,6.12,6.12,0,0,1-3.24,5.39,5.75,5.75,0,0,1,.56,2.5A6,6,0,0,1,44.56,55H17.39l3.86-4.3H44.56a1.78,1.78,0,0,0,1.85-2,2,2,0,0,0-2-1.77h-2V42.65h4.78a1.83,1.83,0,1,0,0-3.66h-3.7V34.7h5.37a1.83,1.83,0,0,0,0-3.66H44.15V26.75h3.22a1.83,1.83,0,1,0,0-3.66H33.24c-3.27,0-6.9-2.32-7-6.08a4.09,4.09,0,0,1,.28-1.61L29.4,7.51a4.21,4.21,0,0,0,.13-2.39c0-.11-.15-.37-.93-.63-.93-.31-1.22-.18-1.34-.12-.3.14-.81.58-1.55,1.86C24,9.15,14.63,24.49,14.63,24.49H0V20.2H12.22c2-3.32,8.37-13.71,9.77-16.12S25.61-1,30,.42A5.41,5.41,0,0,1,33.51,3.5a8.15,8.15,0,0,1,0,5.16l-3,8.23v0c.1,1.16,1.65,1.88,2.74,1.88H47.37A6.11,6.11,0,0,1,52.64,28a6.11,6.11,0,0,1-.09,9.72ZM26.33,32.19,11.41,48.8,3,40.79,0,43.9,11.65,55,29.53,35.06Z" transform="translate(0 0)"/></svg>