<svg id="Layer_1" data-name="Layer 1" xmlns="http://www.w3.org/2000/svg" viewBox="0 0 15.21 20"><defs><style>.cls-1{fill:#010101;}</style></defs><title>user</title><g id="add-to-cart"><path class="cls-1" d="M9.37,9.86Zm0,0Zm0,0Zm0,0Zm0,0Zm0,0Zm0,0Zm0,0Zm0,0Zm0,0Z" transform="translate(0)"/><path class="cls-1" d="M9.37,9.86Z" transform="translate(0)"/></g><g id="man-user"><path class="cls-1" d="M7.61,9.78c2.22,0,4-2.19,4-4.89S11,0,7.61,0s-4,2.19-4,4.89S5.38,9.78,7.61,9.78Z" transform="translate(0)"/><path class="cls-1" d="M0,17.25Z" transform="translate(0)"/><path class="cls-1" d="M15.21,17.38Z" transform="translate(0)"/><path class="cls-1" d="M15.2,17.05c-.07-4.7-.69-6-5.39-6.89a2.81,2.81,0,0,1-2.2.84,2.82,2.82,0,0,1-2.21-.84C.75,11,.1,12.32,0,16.9c0,.37,0,.39,0,.35v.49S1.12,20,7.61,20s7.6-2.26,7.6-2.26v-.36S15.21,17.35,15.2,17.05Z" transform="translate(0)"/></g></svg>